HIERARCHY
ROOT Hips
{
	OFFSET -3.958830 18.904000 13.208200
	CHANNELS 6 Xposition Yposition Zposition Zrotation Yrotation Xrotation 
	JOINT LHipJoint
	{
		OFFSET 0.000000 0.000000 0.000000
		CHANNELS 3 Zrotation Yrotation Xrotation
		JOINT LeftUpLeg
		{
			OFFSET 1.800000 -1.400000 0.085000
			CHANNELS 3 Zrotation Yrotation Xrotation
			JOINT LeftLeg
			{
				OFFSET 2.215000 -6.000000 0.000000
				CHANNELS 3 Zrotation Yrotation Xrotation
				JOINT LeftFoot
				{
					OFFSET 2.500000 -6.900000 0.000000
					CHANNELS 3 Zrotation Yrotation Xrotation
					JOINT LeftToeBase
					{
						OFFSET 0.200000 -0.500000 1.950000
						CHANNELS 3 Zrotation Yrotation Xrotation
						End Site
						{
							OFFSET 0.000000 0.000000 0.000000
						}
					}
				}
			}
		}
	}
	JOINT RHipJoint
	{
		OFFSET 0.000000 0.000000 0.000000
		CHANNELS 3 Zrotation Yrotation Xrotation
		JOINT RightUpLeg
		{
			OFFSET -1.800000 -1.400000 0.085000
			CHANNELS 3 Zrotation Yrotation Xrotation
			JOINT RightLeg
			{
				OFFSET -2.215000 -6.000000 0.000000
				CHANNELS 3 Zrotation Yrotation Xrotation
				JOINT RightFoot
				{
					OFFSET -2.500000 -6.900000 0.000000
					CHANNELS 3 Zrotation Yrotation Xrotation
					JOINT RightToeBase
					{
						OFFSET -0.200000 -0.500000 1.950000
						CHANNELS 3 Zrotation Yrotation Xrotation
						End Site
						{
							OFFSET 0.000000 0.000000 0.000000
						}
					}
				}
			}
		}
	}
	JOINT LowerBack
	{
		OFFSET 0.000000 0.000000 0.000000
		CHANNELS 3 Zrotation Yrotation Xrotation
		JOINT Spine
		{
			OFFSET -0.087000 1.940000 -0.288900
			CHANNELS 3 Zrotation Yrotation Xrotation
			JOINT Spine1
			{
				OFFSET 0.000000 1.950000 0.060000
				CHANNELS 3 Zrotation Yrotation Xrotation
				JOINT Neck
				{
					OFFSET 0.000000 0.000000 0.000000
					CHANNELS 3 Zrotation Yrotation Xrotation
					JOINT Neck1
					{
						OFFSET 0.000000 1.600000 0.340000
						CHANNELS 3 Zrotation Yrotation Xrotation
						JOINT Head
						{
							OFFSET 0.000000 1.667000 -0.240000
							CHANNELS 3 Zrotation Yrotation Xrotation
							End Site
							{
								OFFSET 0.000000 0.000000 0.000000
							}
						}
					}
				}
				JOINT LeftShoulder
				{
					OFFSET 0.000000 0.000000 0.000000
					CHANNELS 3 Zrotation Yrotation Xrotation
					JOINT LeftArm
					{
						OFFSET 2.700000 1.550000 -0.730000
						CHANNELS 3 Zrotation Yrotation Xrotation
						JOINT LeftForeArm
						{
							OFFSET 5.450000 0.000000 0.000000
							CHANNELS 3 Zrotation Yrotation Xrotation
							JOINT LeftHand
							{
								OFFSET 3.450000 0.000000 0.000000
								CHANNELS 3 Zrotation Yrotation Xrotation
								JOINT LeftHandIndex1
								{
									OFFSET 0.750000 0.000000 0.000000
									CHANNELS 3 Zrotation Yrotation Xrotation
									End Site
									{
										OFFSET 0.000000 0.000000 0.000000
									}
								}
							}
						}
					}
				}
				JOINT RightShoulder
				{
					OFFSET 0.000000 0.000000 0.000000
					CHANNELS 3 Zrotation Yrotation Xrotation
					JOINT RightArm
					{
						OFFSET -2.700000 1.550000 -0.730000
						CHANNELS 3 Zrotation Yrotation Xrotation
						JOINT RightForeArm
						{
							OFFSET -5.450000 0.000000 0.000000
							CHANNELS 3 Zrotation Yrotation Xrotation
							JOINT RightHand
							{
								OFFSET -3.450000 0.000000 0.000000
								CHANNELS 3 Zrotation Yrotation Xrotation
								JOINT RightHandIndex1
								{
									OFFSET -0.750000 0.000000 0.000000
									CHANNELS 3 Zrotation Yrotation Xrotation
									End Site
									{
										OFFSET 0.000000 0.000000 0.000000
									}
								}
							}
						}
					}
				}
			}
		}
	}
}
MOTION
Frames: 12
Frame Time: 0.016667
4.125470 16.219110 -10.967010 -12.456180 -53.890966 15.997394 -15.460200 12.867065 6.177915 7.233956 -4.623963 -49.362895 -16.805373 8.523113 17.725155 -0.019560 5.012029 2.868338 -0.085390 -0.705030 0.219790 17.765706 -10.189622 2.739238 -6.377741 0.784260 12.419421 4.097109 -7.812738 21.386632 -0.986553 -5.523805 2.651117 -0.756230 0.251280 0.404210 -2.605715 -3.893902 -9.575170 15.933842 7.528123 14.752076 -6.774542 12.237670 -34.176988 5.283692 -2.800946 -13.703690 -9.593552 5.841344 50.567143 -0.152770 5.355810 -4.897280 3.470758 24.649955 1.453446 -24.672673 43.278024 -8.091242 3.349970 -3.232431 -0.725319 -3.694758 2.275525 1.031760 -0.133830 0.281950 0.141290 -11.491745 -12.341106 8.343901 36.222973 -23.980796 -11.404157 -1.039397 2.283169 0.681601 2.891007 -0.518995 -0.190600 -0.000530 0.052570 -0.131770 
3.985170 16.228640 -10.756220 -12.099148 -50.341354 14.797327 -15.395050 13.095552 6.128431 6.101687 -5.548046 -47.930978 -16.435116 8.965282 20.348880 0.072848 5.167474 2.823773 -0.078910 -0.708360 0.208870 17.800244 -10.255852 2.661640 -4.648503 1.450393 9.750724 3.637346 -8.428227 29.808822 -1.044682 -6.018947 2.479748 -0.777770 0.248540 0.425590 -2.586586 -4.054408 -9.536956 16.371111 6.427045 14.014226 -6.697454 11.485937 -35.696618 5.217418 -2.877585 -13.214233 -9.585662 5.427569 49.826845 0.165710 4.497850 -2.370730 2.504898 25.985089 0.718227 -26.069936 43.283567 -8.098273 3.132167 -2.187829 -0.655394 -3.672576 2.318666 0.990680 -0.125960 0.271550 0.159970 -10.475990 -13.745308 8.318733 38.298564 -25.745178 -11.847546 -1.761967 2.292360 0.752481 2.928788 -0.569935 -0.150670 -0.058720 0.027830 -0.108410 
3.844500 16.220020 -10.573170 -11.222127 -47.486619 12.414444 -15.351879 13.150623 5.995696 6.132799 -5.754948 -45.774948 -17.383217 10.030382 22.870389 0.222484 5.616434 2.640818 -0.044140 -0.676080 0.214220 17.842616 -10.316074 2.611940 -3.494152 2.898747 6.439872 3.351231 -9.353120 39.411984 -1.214497 -6.916682 2.154061 -0.783140 0.198220 0.443190 -2.495929 -3.859684 -9.513856 14.975697 6.184106 13.748209 -4.991892 11.051853 -35.930517 4.938474 -3.572552 -12.807278 -10.786212 5.391906 48.993996 1.106580 3.332960 -1.383260 0.571123 26.233992 0.249332 -31.342780 42.786816 -9.440272 3.515063 -1.684844 -0.554949 -3.654430 2.381724 0.961350 -0.155940 0.278900 0.166450 -7.936228 -14.123128 8.063314 40.855302 -26.944705 -11.954911 -3.921445 0.456707 1.075204 3.015990 -0.640064 -0.092990 -0.142100 -0.006580 -0.091380 
3.754220 16.207340 -10.419360 -10.741417 -45.464219 9.904053 -15.361623 13.148756 5.815582 5.821866 -5.947416 -44.282578 -16.689537 11.163315 27.013162 0.306157 6.200153 2.428448 -0.060950 -0.697470 0.212100 17.862320 -10.279067 2.635875 -2.637345 4.960424 2.188219 2.737893 -10.141469 48.708607 -1.430328 -7.914231 1.818725 -0.794540 0.176710 0.415600 -2.347766 -3.681908 -9.502673 13.528620 6.526333 15.026591 -3.477847 11.378733 -36.147659 4.816430 -3.896301 -12.488602 -11.240951 4.892054 49.456352 1.688180 2.143090 -2.445720 -1.408103 26.264019 -0.522931 -38.974711 39.851127 -10.557169 6.140105 0.829905 -0.090446 -3.728966 2.248173 0.994020 -0.188560 0.283640 0.148910 -5.730488 -14.058842 7.763212 44.966067 -26.721673 -12.307253 -4.798923 -1.882504 1.472955 3.061008 -0.608105 -0.112520 -0.128910 0.004150 -0.104260 
3.659530 16.157370 -10.266270 -10.015977 -42.150478 7.638104 -15.345300 12.878160 5.599041 5.600680 -6.136602 -42.733145 -16.985082 12.549896 30.521661 0.459947 6.972341 2.175224 -0.141700 -0.792080 0.111540 17.956797 -10.195827 2.779229 -1.444611 6.858242 -2.871158 2.583653 -11.164780 56.328510 -1.616354 -8.978486 1.495265 -0.841650 0.257030 0.470420 -2.478966 -3.114417 -9.454673 12.767691 6.582538 15.185341 -2.992221 10.937767 -34.503519 4.597124 -3.821320 -11.658380 -10.125757 3.402843 46.371823 0.228390 1.274190 -0.311420 -3.877823 25.646530 -1.284913 -46.109015 34.539613 -11.294314 7.228913 2.218559 0.154969 -3.889576 2.272916 0.928580 -0.103870 0.217300 0.143660 -3.626149 -13.872769 7.009967 51.399490 -24.696335 -12.866883 -5.598860 -3.057664 1.776079 3.047720 -0.660708 -0.102500 -0.159330 0.080680 -0.081480 
3.591560 16.127180 -10.107520 -8.981846 -38.515443 5.704655 -15.306906 12.648567 5.377965 4.180219 -6.811071 -41.093723 -16.402885 13.333908 33.461772 0.541404 7.485505 2.069341 -0.239250 -0.895180 0.038920 18.047616 -10.043131 3.010464 -2.606989 8.937523 -9.815166 4.383005 -13.413143 61.482228 -1.755782 -9.875809 1.236464 -0.865470 0.378990 0.436840 -2.718376 -2.732797 -9.444317 12.744507 5.258408 15.499358 -3.852662 9.190638 -33.934966 4.381379 -3.872252 -10.707221 -8.974721 3.700728 44.145611 0.358840 1.841960 0.573490 -7.192055 24.377007 -1.781015 -51.006773 30.323265 -10.765489 7.673757 3.003196 0.385450 -3.989039 2.204568 0.906660 -0.036080 0.142600 0.141920 -0.918856 -13.016705 5.756763 57.602338 -19.777044 -12.277082 -6.131514 -3.248309 1.921913 3.008365 -0.650935 -0.182510 -0.065890 0.148690 -0.076180 
3.515270 16.133000 -9.969490 -8.224669 -34.075322 2.543967 -15.301223 12.645001 4.970562 2.921845 -6.744549 -37.277394 -15.226691 13.494885 35.186089 0.605880 7.514711 2.006765 -0.118460 -0.731240 0.114050 18.059356 -9.902478 3.360538 -4.275678 10.298908 -16.091910 6.691949 -15.847656 64.589139 -1.978516 -10.583247 0.976437 -0.807500 0.246530 0.473980 -2.698955 -2.578966 -9.502721 11.546693 4.885246 16.831507 -3.978507 8.449375 -32.561782 4.828714 -3.037878 -10.841724 -7.178949 2.935606 46.816600 -0.142980 2.102340 -2.793050 -10.650320 21.534081 -1.903177 -55.692998 24.502218 -10.423728 6.695031 -0.047742 -0.041820 -3.850804 2.363564 0.933960 -0.107040 0.243200 0.146330 1.329359 -10.757137 5.676031 64.102879 -17.457256 -12.396878 -5.990277 0.491201 1.469419 2.952643 -0.720301 -0.094380 -0.136190 0.078560 -0.080000 
3.513290 16.155190 -9.903460 -8.757032 -28.394717 -1.825628 -15.288300 12.964268 4.619282 1.297440 -6.864296 -32.906981 -11.921638 12.607203 38.122651 0.552946 7.444398 1.963011 0.121710 -0.407040 0.275690 18.039208 -9.711506 3.620033 -6.420874 10.299575 -20.615472 9.928536 -17.948569 63.210721 -2.114539 -10.591644 0.916582 -0.634140 0.073410 0.452350 -2.695958 -3.151448 -9.556833 13.452206 2.721568 19.959892 -4.436277 7.398543 -29.437286 5.549193 -4.939222 -12.034304 -11.052012 4.906592 55.217569 0.593780 1.425400 -10.799980 -19.338076 13.359074 -1.437835 -59.274972 18.414473 -8.299639 8.666491 -0.785351 -0.005813 -3.632013 2.454447 1.048490 -0.261790 0.423950 0.166560 8.233955 -0.354050 6.969516 67.320502 -12.163282 -10.021988 -8.496548 -0.665379 1.913014 2.894329 -0.800454 -0.027610 -0.055210 -0.022040 -0.091950 
3.525090 16.211600 -9.970570 -8.622421 -25.700042 -13.251289 -15.194941 13.694847 3.963376 1.606488 -4.758037 -21.894476 -9.641299 12.593134 40.919139 0.399517 7.803064 1.692152 0.667790 0.249980 0.670950 18.006708 -10.122185 3.416013 -8.219297 9.405475 -18.148969 9.549990 -15.502643 58.182109 -2.072519 -9.381025 1.106488 -0.208990 -0.257260 0.459790 -2.726303 -3.449535 -9.120216 14.670408 0.542969 26.020825 -4.376720 6.212004 -9.145924 7.198476 -6.226469 -18.502724 -16.344593 8.645769 66.948430 1.294320 0.796770 -26.112830 -37.517359 -13.019647 3.926078 -52.505634 8.222919 -5.819313 10.594055 -2.493793 -0.843228 -3.140937 2.737327 1.293600 -0.517510 0.744050 0.193570 23.928956 26.369804 12.953924 56.393715 -1.631222 -5.653706 -7.713558 -3.340335 1.933281 2.676871 -0.976116 0.066070 0.076660 -0.208120 -0.172200 
3.457380 16.252360 -9.995580 -9.152494 -20.388500 -20.262789 -15.090279 13.948478 3.678892 1.463746 -4.013581 -15.144100 -6.808818 11.285994 41.577607 0.134598 7.757105 1.671083 0.959900 0.640000 0.869930 18.027738 -10.695691 3.134565 -10.036947 6.926346 -17.129303 9.467555 -12.724789 48.747642 -1.697398 -7.669216 1.512326 0.132490 -0.301760 0.450240 -2.970181 -3.096442 -8.749565 13.486320 -1.203739 28.460222 -4.146486 3.256304 14.756380 7.600750 -4.043979 -25.066796 -13.719806 6.666287 61.078851 1.328120 0.075830 -32.852820 -35.492941 -35.137833 10.278043 -43.399790 -6.482421 -3.385653 11.855671 -2.305076 -1.506343 -3.063997 2.857542 1.313860 -0.509750 0.811940 0.221350 21.771889 44.977219 17.140917 43.139395 10.418217 -2.527059 -4.767015 0.121506 1.063564 2.429212 -1.014075 0.046910 0.239730 -0.279460 -0.210330 
3.340060 16.290170 -9.916860 -8.966242 -14.768772 -23.290222 -15.119818 14.046296 3.524834 0.171482 -3.599238 -10.908769 -3.747707 9.790382 41.787386 -0.125033 7.682891 1.695826 1.192870 0.915820 0.993130 17.995169 -11.159295 2.739488 -12.243783 4.180630 -19.912408 5.153551 -8.442800 39.308360 -1.190247 -5.658843 2.042385 0.429640 -0.228740 0.499510 -2.960678 -2.736587 -8.356029 10.489142 -0.618828 26.825627 -1.271390 0.852295 28.798874 5.871602 -3.487956 -25.930164 -11.016736 4.379858 51.064702 0.568460 -0.043160 -33.402420 -21.762232 -42.272234 11.039408 -36.446451 -20.855981 -1.695326 11.140158 -7.012228 -2.493894 -3.194798 2.913258 1.242790 -0.388450 0.768860 0.287900 11.809500 49.392957 17.070351 31.553216 20.658999 -0.992848 -5.839045 3.473715 0.245129 2.263001 -1.132085 0.014990 0.326490 -0.327440 -0.225640 
3.263870 16.328370 -9.841660 -10.823641 -12.060865 -24.177717 -15.079429 14.381483 3.458024 2.240682 -3.190842 -9.947399 -2.562043 9.470656 42.225969 -0.139263 7.779661 1.684064 1.207280 0.967910 0.965710 17.968123 -11.294753 2.654616 -11.935751 2.726331 -23.216024 0.166217 -4.901362 29.395386 -0.824066 -3.626679 2.738573 0.475700 -0.160320 0.515970 -2.980236 -3.024096 -8.266668 12.259967 -1.462016 28.215973 -0.850342 -0.179735 31.474793 5.359115 -3.428526 -27.569130 -11.689374 3.668786 49.752572 0.517740 -0.757510 -33.451910 -16.576355 -42.706570 11.150452 -28.426558 -29.724325 -3.288930 15.493966 -11.127610 -4.011925 -3.273500 2.923117 1.174420 -0.327920 0.741800 0.317710 7.391017 49.022979 16.363760 21.632232 27.122481 -2.097431 -10.410639 2.200784 -0.493306 2.425511 -1.162561 0.024900 0.369170 -0.322350 -0.186350 
